<?xml version="1.0" encoding="UTF-8"?>
<!DOCTYPE svg PUBLIC "-//W3C//DTD SVG 1.1//EN" "http://www.w3.org/Graphics/SVG/1.1/DTD/svg11.dtd">
<svg version="1.1" xmlns="http://www.w3.org/2000/svg" xmlns:xlink="http://www.w3.org/1999/xlink" x="0" y="0" viewBox="0, 0, 598, 143">
  <g id="Layer_1">
    <g>
      <g id="Text">
        <path d="M101.434,110.611 Q100.171,114.526 95.434,117.495 Q90.697,120.463 86.403,120.463 L15.413,120.463 L25.013,90.905 L72.382,90.905 Q84.129,90.905 87.287,81.053 L93.729,61.347 Q94.361,59.453 94.361,57.811 Q94.361,51.495 85.139,51.495 L61.518,51.495 Q52.424,51.495 52.424,44.421 Q52.424,43.032 52.803,41.642 L56.087,31.789 Q57.224,28.253 61.645,25.095 Q66.066,21.937 71.118,21.937 L106.613,21.937 L103.329,31.789 L79.708,31.789 L76.55,41.642 L111.918,41.642 Q121.139,41.642 121.139,48.211 Q121.139,49.726 120.634,51.495 z M177.603,51.495 Q178.108,49.853 178.108,48.337 Q178.108,41.642 169.013,41.642 L157.139,41.642 L163.582,21.937 L139.961,21.937 L120.761,81.053 L144.382,81.053 L153.982,51.495 L165.855,51.495 L156.255,81.053 L168.003,81.053 z M217.013,41.642 L193.392,41.642 L180.508,81.053 L204.255,81.053 z M223.455,21.937 L199.708,21.937 L196.55,31.789 L220.171,31.789 z M261.603,51.495 L249.729,51.495 L256.171,31.789 L267.918,31.789 L271.203,21.937 L247.455,21.937 Q242.782,21.937 238.613,24.463 Q233.939,27.242 232.424,31.789 L216.508,81.053 L240.129,81.053 L246.571,61.347 L258.318,61.347 z M304.297,61.347 L292.55,61.347 L295.708,51.495 L307.582,51.495 L310.739,41.642 L298.992,41.642 L305.308,21.937 L281.687,21.937 L265.645,71.2 Q265.266,72.589 265.266,73.979 Q265.266,77.263 267.855,79.158 Q270.445,81.053 274.361,81.053 L297.982,81.053 z M339.792,61.347 L342.95,51.495 L354.824,51.495 z M363.413,61.347 L351.539,61.347 L366.445,51.495 Q369.855,49.221 369.855,46.189 Q369.855,41.642 362.529,41.642 L334.361,41.642 Q329.813,41.642 325.203,44.674 Q320.592,47.705 319.329,51.495 L312.887,71.2 Q312.508,72.463 312.508,73.726 Q312.508,77.011 315.413,79.158 Q317.939,81.053 321.603,81.053 L356.971,81.053 z M118.407,90.506 L109.356,120.355 L392.034,120.355 L401.085,90.506 L118.407,90.506 z M418.108,41.642 L394.487,41.642 Q390.192,41.642 385.645,44.295 Q380.718,47.326 379.455,51.495 L369.855,81.053 L393.476,81.053 L403.076,51.495 L414.824,51.495 z" fill="#000000" id="Shifter_Text"/>
        <g id="ZDS">
          <path d="M6.967,55.392 L65.961,55.392 C69.81,55.392 72.929,58.066 72.929,61.366 L72.929,81.034 C72.929,84.333 69.81,87.008 65.961,87.008 L6.967,87.008 C3.119,87.008 -0,84.333 -0,81.034 L-0,61.366 C-0,58.066 3.119,55.392 6.967,55.392 z" fill="#7E0018"/>
          <path d="M25.823,82.436 L25.363,82.272 L25.363,82.042 Q25.297,81.319 24.985,81.056 Q24.673,80.794 23.753,80.794 L11.137,80.794 L21.881,63.643 L13.075,63.643 Q12.155,63.643 11.86,63.906 Q11.564,64.169 11.498,64.892 L11.498,65.122 L11.038,65.319 L11.038,65.023 Q11.038,64.728 11.071,64.169 Q11.104,63.611 11.104,63.446 L11.104,61.803 Q11.104,61.606 11.071,61.048 Q11.038,60.489 11.038,60.226 L11.038,59.964 L11.498,60.128 L11.498,60.358 Q11.564,61.081 11.86,61.344 Q12.155,61.606 13.075,61.606 L25.626,61.606 L14.915,78.757 L23.753,78.757 Q24.673,78.757 24.985,78.494 Q25.297,78.231 25.363,77.508 L25.363,77.278 L25.823,77.081 L25.823,77.377 Q25.823,77.64 25.774,78.198 Q25.725,78.757 25.725,78.954 L25.725,80.596 Q25.725,80.761 25.774,81.336 Q25.823,81.911 25.823,82.174 z M44.35,71.233 Q44.35,74.42 42.099,76.687 Q39.849,78.954 36.662,78.954 L32.949,78.954 L32.949,63.446 L36.662,63.446 Q39.849,63.446 42.099,65.73 Q44.35,68.013 44.35,71.233 z M46.419,71.134 Q46.419,67.093 43.528,64.317 Q40.637,61.541 36.563,61.541 Q35.709,61.541 34.559,61.574 Q33.409,61.606 33.015,61.606 L31.043,61.606 Q30.879,61.606 30.321,61.574 Q29.762,61.541 29.466,61.541 L29.204,61.541 L29.368,61.968 L29.598,61.968 Q30.321,62.033 30.583,62.346 Q30.846,62.658 30.846,63.578 L30.846,78.822 Q30.846,79.742 30.583,80.054 Q30.321,80.367 29.598,80.432 L29.368,80.432 L29.204,80.859 L29.466,80.859 Q29.762,80.859 30.321,80.826 Q30.879,80.794 31.043,80.794 L33.409,80.794 Q33.475,80.794 34.657,80.826 Q35.84,80.826 36.563,80.826 Q40.703,80.826 43.561,78.034 Q46.419,75.241 46.419,71.134 z M61.891,75.767 Q61.891,72.646 58.736,70.937 L55.188,69.032 Q52.724,67.717 52.724,66.14 Q52.724,64.925 53.545,64.136 Q54.432,63.216 56.108,63.216 Q57.324,63.216 58.293,63.857 Q59.262,64.498 59.262,65.22 Q59.262,65.648 58.736,66.14 L58.999,66.567 L61.233,64.563 Q59.591,61.376 55.911,61.376 Q53.808,61.376 52.264,62.723 Q50.72,64.07 50.72,66.14 Q50.72,67.586 51.344,68.572 Q52.1,69.722 54.005,70.773 L57.028,72.416 Q59.854,73.96 59.854,75.734 Q59.854,77.245 58.72,78.297 Q57.587,79.348 55.747,79.348 Q54.17,79.348 53.053,78.362 Q52.133,77.574 52.133,76.917 Q52.133,76.457 52.823,76.03 L52.625,75.701 L49.931,76.884 Q50.194,78.198 51.311,79.414 Q52.987,81.221 55.648,81.221 Q58.211,81.221 60.051,79.693 Q61.891,78.165 61.891,75.767 z" fill="#FFFFFF"/>
        </g>
      </g>
      <g id="Logo" display="none">
        <path d="M525.064,2.203 L525.87,2.203 C563.821,2.203 594.852,33.234 594.852,71.184 L594.852,71.184 C594.852,109.135 563.821,140.166 525.87,140.166 L525.064,140.166 C487.144,140.197 456.082,109.135 456.082,71.184 L456.082,71.184 C456.082,33.265 487.144,2.203 525.064,2.203 z" fill="#FFFFFF"/>
        <path d="M556.932,29.231 C563.48,29.231 568.755,34.351 568.755,40.65 C568.755,45.274 565.9,49.277 561.773,51.046 L561.773,91.044 C566.303,92.658 569.531,96.847 569.531,101.75 C569.531,108.049 564.224,113.169 557.708,113.169 C551.161,113.169 545.885,108.049 545.885,101.75 C545.885,97.405 548.399,93.651 552.091,91.727 L552.091,78.104 L529.78,78.104 L529.78,91.075 C534.032,92.813 537.01,96.847 537.01,101.595 C537.01,107.894 531.704,113.014 525.188,113.014 C518.64,113.014 513.365,107.894 513.365,101.595 C513.365,97.468 515.661,93.837 519.075,91.851 L519.075,78.104 L497.633,78.104 L497.633,91.137 C502.008,92.813 505.111,96.94 505.111,101.75 C505.111,108.049 499.805,113.169 493.288,113.169 C486.741,113.169 481.465,108.049 481.465,101.75 C481.465,96.94 484.569,92.813 488.944,91.137 L488.944,78.104 L488.944,67.709 L497.633,67.709 L519.075,67.709 L519.075,50.797 C515.258,48.904 512.651,45.057 512.651,40.65 C512.651,34.351 517.958,29.231 524.474,29.231 C531.022,29.231 536.297,34.351 536.297,40.65 C536.297,45.119 533.659,48.966 529.78,50.828 L529.78,67.709 L552.091,67.709 L552.091,51.046 C547.964,49.246 545.109,45.274 545.109,40.65 C545.078,34.351 550.385,29.231 556.932,29.231 z" fill="#000000"/>
        <path d="M525.87,142.4 L525.064,142.4 C485.81,142.4 453.879,110.469 453.879,71.216 C453.879,31.962 485.81,-0 525.064,-0 L525.87,-0 C565.124,-0 597.055,31.931 597.055,71.184 C597.055,110.438 565.155,142.4 525.87,142.4 z M525.064,4.406 C488.261,4.406 458.286,34.382 458.286,71.184 C458.286,108.018 488.261,137.963 525.064,137.963 L525.87,137.963 C562.704,137.963 592.649,107.987 592.649,71.184 C592.649,34.351 562.673,4.406 525.87,4.406 L525.064,4.406 z" fill="#000000"/>
      </g>
    </g>
  </g>
</svg>
