<?xml version="1.0" encoding="UTF-8"?>
<!DOCTYPE svg PUBLIC "-//W3C//DTD SVG 1.1//EN" "http://www.w3.org/Graphics/SVG/1.1/DTD/svg11.dtd">
<svg version="1.1" xmlns="http://www.w3.org/2000/svg" xmlns:xlink="http://www.w3.org/1999/xlink" x="0" y="0" width="286.999" height="187" viewBox="0, 0, 286.999, 187">
  <g id="graphics">
    <g id="chevron">
      <path d="M146.04,12.128 C169.412,12.128 188.358,31.074 188.358,54.446 C188.358,77.817 169.412,96.764 146.04,96.764 C122.669,96.764 103.723,77.817 103.723,54.446 C103.723,31.074 122.669,12.128 146.04,12.128 z M146.04,15.967 C124.789,15.967 107.562,33.195 107.562,54.446 C107.562,75.697 124.789,92.925 146.04,92.925 C167.292,92.925 184.519,75.697 184.519,54.446 C184.519,33.195 167.292,15.967 146.04,15.967 z" fill="#000000"/>
      <g>
        <g>
          <path d="M128.328,75.125 C125.388,75.125 123.006,72.742 123.006,69.802 C123.006,66.863 125.388,64.48 128.328,64.48 C131.268,64.48 133.65,66.863 133.65,69.802 C133.65,72.742 131.268,75.125 128.328,75.125 z" fill="#000000"/>
          <path d="M128.328,75.125 C125.388,75.125 123.006,72.742 123.006,69.802 C123.006,66.863 125.388,64.48 128.328,64.48 C131.268,64.48 133.65,66.863 133.65,69.802 C133.65,72.742 131.268,75.125 128.328,75.125 z" fill-opacity="0" stroke="#000000" stroke-width="3"/>
        </g>
        <g>
          <path d="M162.008,40.573 C159.068,40.573 156.685,38.19 156.685,35.25 C156.685,32.311 159.068,29.928 162.008,29.928 C164.947,29.928 167.33,32.311 167.33,35.25 C167.33,38.19 164.947,40.573 162.008,40.573 z" fill="#000000"/>
          <path d="M162.008,40.573 C159.068,40.573 156.685,38.19 156.685,35.25 C156.685,32.311 159.068,29.928 162.008,29.928 C164.947,29.928 167.33,32.311 167.33,35.25 C167.33,38.19 164.947,40.573 162.008,40.573 z" fill-opacity="0" stroke="#000000" stroke-width="3"/>
        </g>
        <g>
          <path d="M146.651,40.573 C143.712,40.573 141.329,38.19 141.329,35.25 C141.329,32.311 143.712,29.928 146.651,29.928 C149.591,29.928 151.974,32.311 151.974,35.25 C151.974,38.19 149.591,40.573 146.651,40.573 z" fill="#000000"/>
          <path d="M146.651,40.573 C143.712,40.573 141.329,38.19 141.329,35.25 C141.329,32.311 143.712,29.928 146.651,29.928 C149.591,29.928 151.974,32.311 151.974,35.25 C151.974,38.19 149.591,40.573 146.651,40.573 z" fill-opacity="0" stroke="#000000" stroke-width="3"/>
        </g>
        <g>
          <path d="M146.651,75.125 C143.712,75.125 141.329,72.742 141.329,69.802 C141.329,66.863 143.712,64.48 146.651,64.48 C149.591,64.48 151.974,66.863 151.974,69.802 C151.974,72.742 149.591,75.125 146.651,75.125 z" fill="#000000"/>
          <path d="M146.651,75.125 C143.712,75.125 141.329,72.742 141.329,69.802 C141.329,66.863 143.712,64.48 146.651,64.48 C149.591,64.48 151.974,66.863 151.974,69.802 C151.974,72.742 149.591,75.125 146.651,75.125 z" fill-opacity="0" stroke="#000000" stroke-width="3"/>
        </g>
        <g>
          <path d="M162.008,75.125 C159.068,75.125 156.685,72.742 156.685,69.802 C156.685,66.863 159.068,64.48 162.008,64.48 C164.947,64.48 167.33,66.863 167.33,69.802 C167.33,72.742 164.947,75.125 162.008,75.125 z" fill="#000000"/>
          <path d="M162.008,75.125 C159.068,75.125 156.685,72.742 156.685,69.802 C156.685,66.863 159.068,64.48 162.008,64.48 C164.947,64.48 167.33,66.863 167.33,69.802 C167.33,72.742 164.947,75.125 162.008,75.125 z" fill-opacity="0" stroke="#000000" stroke-width="3"/>
        </g>
        <g>
          <path d="M162.008,41.271 L162.008,63.607" fill="#000000"/>
          <path d="M162.008,41.271 L162.008,63.607" fill-opacity="0" stroke="#000000" stroke-width="5"/>
        </g>
        <g>
          <path d="M146.651,41.271 L146.651,63.607" fill="#000000"/>
          <path d="M146.651,41.271 L146.651,63.607" fill-opacity="0" stroke="#000000" stroke-width="5"/>
        </g>
        <g>
          <path d="M128.328,52.265 L128.328,63.607" fill="#000000"/>
          <path d="M128.328,52.265 L128.328,63.607" fill-opacity="0" stroke="#000000" stroke-width="5" stroke-linecap="round"/>
        </g>
        <g>
          <path d="M128.328,52.265 L161.397,52.265" fill="#000000"/>
          <path d="M128.328,52.265 L161.397,52.265" fill-opacity="0" stroke="#000000" stroke-width="5" stroke-linecap="round"/>
        </g>
      </g>
    </g>
    <path d="M146.571,121.573 L144.483,121.573 L144.483,110.413 Q144.483,109.813 143.979,109.645 Q143.739,109.573 142.971,109.573 L142.083,109.573 L142.083,107.773 L143.883,107.773 Q145.995,107.773 146.379,108.637 Q146.571,109.069 146.571,110.005 z" fill="#000000"/>
    <path d="M50.712,132.424 L50.712,133.672 Q50.712,134.68 50.52,135.112 Q50.136,136 48.096,136 L43.752,136 Q41.736,136 41.352,135.112 Q41.16,134.68 41.16,133.768 L41.16,130.456 Q41.16,129.496 41.376,129.088 Q41.64,128.56 42.696,128.44 Q43.032,128.392 44.304,128.392 L47.208,128.392 Q48.624,128.392 48.624,127.312 L48.624,124.84 Q48.624,124 47.4,124 L44.76,124 Q43.584,124 43.368,124.336 Q43.248,124.528 43.248,125.776 L41.16,125.776 L41.16,124.528 Q41.16,123.496 41.352,123.064 Q41.736,122.2 43.752,122.2 L48.096,122.2 Q50.136,122.2 50.52,123.064 Q50.712,123.496 50.712,124.432 L50.712,127.744 Q50.712,128.656 50.52,129.112 Q50.232,129.736 49.224,129.928 Q48.744,130.024 47.568,130.024 L44.448,130.024 Q43.248,130.024 43.248,130.888 L43.248,133.336 Q43.248,134.2 44.448,134.2 L47.112,134.2 Q48.288,134.2 48.504,133.864 Q48.624,133.672 48.624,132.424 z" fill="#000000"/>
    <path d="M243.79,130.552 L243.79,133.768 Q243.79,134.704 243.598,135.136 Q243.214,136 241.102,136 L237.478,136 Q235.294,136 234.766,135.58 Q234.238,135.16 234.238,133.144 L234.238,132.424 L236.326,132.424 L236.326,133.096 Q236.326,133.864 236.686,134.08 Q236.926,134.2 237.838,134.2 L240.478,134.2 Q241.702,134.2 241.702,133.336 L241.702,130.888 Q241.702,130.288 241.198,130.096 Q240.934,130.024 240.19,130.024 L237.478,130.024 L237.478,128.176 L240.19,128.176 Q240.934,128.176 241.198,128.08 Q241.702,127.912 241.702,127.312 L241.702,124.84 Q241.702,124 240.478,124 L237.838,124 Q236.662,124 236.446,124.336 Q236.326,124.528 236.326,125.776 L234.238,125.776 L234.238,124.528 Q234.238,123.496 234.43,123.064 Q234.814,122.2 236.83,122.2 L241.174,122.2 Q243.214,122.2 243.598,123.064 Q243.79,123.496 243.79,124.432 L243.79,127.648 Q243.79,128.656 242.71,129.088 Q243.79,129.496 243.79,130.552 z" fill="#000000"/>
  </g>
</svg>
