<?xml version="1.0" encoding="UTF-8"?>
<!DOCTYPE svg PUBLIC "-//W3C//DTD SVG 1.1//EN" "http://www.w3.org/Graphics/SVG/1.1/DTD/svg11.dtd">
<svg version="1.1" xmlns="http://www.w3.org/2000/svg" xmlns:xlink="http://www.w3.org/1999/xlink" x="0" y="0" width="286.999" height="187" viewBox="0, 0, 286.999, 187">
  <g id="guide" display="none">
    <g>
      <path d="M0,-0 L286.999,-0 L286.999,187 L0,187 z" fill="#FFFFFF"/>
      <g>
        <path d="M0,187 L286.999,187" fill-opacity="0" stroke="#000000" stroke-width="1" stroke-linecap="round" stroke-linejoin="round"/>
        <path d="M286.999,187 L286.999,-0" fill-opacity="0" stroke="#000000" stroke-width="1" stroke-linecap="round" stroke-linejoin="round"/>
        <path d="M286.999,0 L0,0" fill-opacity="0" stroke="#000000" stroke-width="1" stroke-linecap="round" stroke-linejoin="round"/>
        <path d="M0,-0 L0,187" fill-opacity="0" stroke="#000000" stroke-width="1" stroke-linecap="round" stroke-linejoin="round"/>
        <path d="M168,155 L168,153 L168,151 L168,149 L167,148 L167,146 L166,144 L165,142 L164,140 L162,139 L161,137 L159,136 L158,135 L156,134 L154,133 L153,132 L151,131 L149,131 L147,131 L145,130 L143,130 L141,131 L139,131 L137,131 L135,132 L133,133 L131,134 L130,135 L128,136 L126,137 L125,139 L124,140 L123,142 L122,143 L121,145 L120,147 L119,149 L119,151 L119,153 L119,155 L119,157 L119,159 L119,161 L120,163 L120,165 L121,166 L122,168 L123,170 L124,171 L126,173 L127,174 L129,176 L130,177 L132,178 L134,178 L136,179 L138,180 L140,180 L142,180 L144,180 L146,180 L148,180 L150,180 L152,179 L153,178 L155,177 L157,176 L159,175 L160,174 L162,173 L163,171 L164,170 L165,168 L166,166 L167,164 L168,162 L168,160 L168,158 L168,156 L168,155" fill-opacity="0" stroke="#000000" stroke-width="1" stroke-linecap="round" stroke-linejoin="round"/>
        <path d="M74,85 L73,83 L73,81 L73,79 L72,78 L72,76 L71,74 L70,72 L69,70 L67,69 L66,67 L64,66 L63,65 L61,64 L59,63 L58,62 L56,61 L54,61 L52,61 L50,60 L48,60 L46,61 L44,61 L42,61 L40,62 L38,63 L36,64 L35,65 L33,66 L31,67 L30,69 L29,70 L28,72 L27,73 L26,75 L25,77 L24,79 L24,81 L24,83 L24,85 L24,87 L24,89 L24,91 L25,93 L25,95 L26,96 L27,98 L28,100 L29,101 L31,103 L32,104 L34,106 L35,107 L37,108 L39,108 L41,109 L43,110 L45,110 L47,110 L49,110 L51,110 L53,110 L55,110 L57,109 L58,108 L60,107 L62,106 L64,105 L65,104 L67,103 L68,101 L69,100 L70,98 L71,96 L72,94 L73,92 L73,90 L73,88 L73,86 L74,85" fill-opacity="0" stroke="#000000" stroke-width="1" stroke-linecap="round" stroke-linejoin="round"/>
        <path d="M263.999,85 L262.999,83 L262.999,81 L262.999,79 L261.999,78 L261.999,76 L260.999,74 L259.999,72 L258.999,70 L256.999,69 L255.999,67 L253.999,66 L252.999,65 L250.999,64 L248.999,63 L247.999,62 L245.999,61 L243.999,61 L241.999,61 L239.999,60 L237.999,60 L235.999,61 L233.999,61 L231.999,61 L229.999,62 L228,63 L226,64 L225,65 L223,66 L221,67 L220,69 L219,70 L218,72 L217,73 L216,75 L215,77 L214,79 L214,81 L214,83 L214,85 L214,87 L214,89 L214,91 L215,93 L215,95 L216,96 L217,98 L218,100 L219,101 L221,103 L222,104 L224,106 L225,107 L227,108 L228.999,108 L230.999,109 L232.999,110 L234.999,110 L236.999,110 L238.999,110 L240.999,110 L242.999,110 L244.999,110 L246.999,109 L247.999,108 L249.999,107 L251.999,106 L253.999,105 L254.999,104 L256.999,103 L257.999,101 L258.999,100 L259.999,98 L260.999,96 L261.999,94 L262.999,92 L262.999,90 L262.999,88 L262.999,86 L263.999,85" fill-opacity="0" stroke="#000000" stroke-width="1" stroke-linecap="round" stroke-linejoin="round"/>
      </g>
    </g>
  </g>
  <g id="graphics">
    <g id="chevron">
      <path d="M146.04,12.128 C169.412,12.128 188.358,31.074 188.358,54.446 C188.358,77.817 169.412,96.764 146.04,96.764 C122.669,96.764 103.723,77.817 103.723,54.446 C103.723,31.074 122.669,12.128 146.04,12.128 z M146.04,15.967 C124.789,15.967 107.562,33.195 107.562,54.446 C107.562,75.697 124.789,92.925 146.04,92.925 C167.292,92.925 184.519,75.697 184.519,54.446 C184.519,33.195 167.292,15.967 146.04,15.967 z" fill="#000000"/>
      <g>
        <g>
          <path d="M128.328,75.125 C125.388,75.125 123.006,72.742 123.006,69.802 C123.006,66.863 125.388,64.48 128.328,64.48 C131.268,64.48 133.65,66.863 133.65,69.802 C133.65,72.742 131.268,75.125 128.328,75.125 z" fill="#000000"/>
          <path d="M128.328,75.125 C125.388,75.125 123.006,72.742 123.006,69.802 C123.006,66.863 125.388,64.48 128.328,64.48 C131.268,64.48 133.65,66.863 133.65,69.802 C133.65,72.742 131.268,75.125 128.328,75.125 z" fill-opacity="0" stroke="#000000" stroke-width="3"/>
        </g>
        <g>
          <path d="M162.008,40.573 C159.068,40.573 156.685,38.19 156.685,35.25 C156.685,32.311 159.068,29.928 162.008,29.928 C164.947,29.928 167.33,32.311 167.33,35.25 C167.33,38.19 164.947,40.573 162.008,40.573 z" fill="#000000"/>
          <path d="M162.008,40.573 C159.068,40.573 156.685,38.19 156.685,35.25 C156.685,32.311 159.068,29.928 162.008,29.928 C164.947,29.928 167.33,32.311 167.33,35.25 C167.33,38.19 164.947,40.573 162.008,40.573 z" fill-opacity="0" stroke="#000000" stroke-width="3"/>
        </g>
        <g>
          <path d="M146.651,40.573 C143.712,40.573 141.329,38.19 141.329,35.25 C141.329,32.311 143.712,29.928 146.651,29.928 C149.591,29.928 151.974,32.311 151.974,35.25 C151.974,38.19 149.591,40.573 146.651,40.573 z" fill="#000000"/>
          <path d="M146.651,40.573 C143.712,40.573 141.329,38.19 141.329,35.25 C141.329,32.311 143.712,29.928 146.651,29.928 C149.591,29.928 151.974,32.311 151.974,35.25 C151.974,38.19 149.591,40.573 146.651,40.573 z" fill-opacity="0" stroke="#000000" stroke-width="3"/>
        </g>
        <g>
          <path d="M146.651,75.125 C143.712,75.125 141.329,72.742 141.329,69.802 C141.329,66.863 143.712,64.48 146.651,64.48 C149.591,64.48 151.974,66.863 151.974,69.802 C151.974,72.742 149.591,75.125 146.651,75.125 z" fill="#000000"/>
          <path d="M146.651,75.125 C143.712,75.125 141.329,72.742 141.329,69.802 C141.329,66.863 143.712,64.48 146.651,64.48 C149.591,64.48 151.974,66.863 151.974,69.802 C151.974,72.742 149.591,75.125 146.651,75.125 z" fill-opacity="0" stroke="#000000" stroke-width="3"/>
        </g>
        <g>
          <path d="M162.008,75.125 C159.068,75.125 156.685,72.742 156.685,69.802 C156.685,66.863 159.068,64.48 162.008,64.48 C164.947,64.48 167.33,66.863 167.33,69.802 C167.33,72.742 164.947,75.125 162.008,75.125 z" fill="#000000"/>
          <path d="M162.008,75.125 C159.068,75.125 156.685,72.742 156.685,69.802 C156.685,66.863 159.068,64.48 162.008,64.48 C164.947,64.48 167.33,66.863 167.33,69.802 C167.33,72.742 164.947,75.125 162.008,75.125 z" fill-opacity="0" stroke="#000000" stroke-width="3"/>
        </g>
        <g>
          <path d="M162.008,41.271 L162.008,63.607" fill="#000000"/>
          <path d="M162.008,41.271 L162.008,63.607" fill-opacity="0" stroke="#000000" stroke-width="5"/>
        </g>
        <g>
          <path d="M146.651,41.271 L146.651,63.607" fill="#000000"/>
          <path d="M146.651,41.271 L146.651,63.607" fill-opacity="0" stroke="#000000" stroke-width="5"/>
        </g>
        <g>
          <path d="M128.328,52.265 L128.328,63.607" fill="#000000"/>
          <path d="M128.328,52.265 L128.328,63.607" fill-opacity="0" stroke="#000000" stroke-width="5" stroke-linecap="round"/>
        </g>
        <g>
          <path d="M128.328,52.265 L161.397,52.265" fill="#000000"/>
          <path d="M128.328,52.265 L161.397,52.265" fill-opacity="0" stroke="#000000" stroke-width="5" stroke-linecap="round"/>
        </g>
      </g>
    </g>
    <path d="M146.571,121.573 L144.483,121.573 L144.483,110.413 Q144.483,109.813 143.979,109.645 Q143.739,109.573 142.971,109.573 L142.083,109.573 L142.083,107.773 L143.883,107.773 Q145.995,107.773 146.379,108.637 Q146.571,109.069 146.571,110.005 z" fill="#000000"/>
    <path d="M50.712,132.424 L50.712,133.672 Q50.712,134.68 50.52,135.112 Q50.136,136 48.096,136 L43.752,136 Q41.736,136 41.352,135.112 Q41.16,134.68 41.16,133.768 L41.16,130.456 Q41.16,129.496 41.376,129.088 Q41.64,128.56 42.696,128.44 Q43.032,128.392 44.304,128.392 L47.208,128.392 Q48.624,128.392 48.624,127.312 L48.624,124.84 Q48.624,124 47.4,124 L44.76,124 Q43.584,124 43.368,124.336 Q43.248,124.528 43.248,125.776 L41.16,125.776 L41.16,124.528 Q41.16,123.496 41.352,123.064 Q41.736,122.2 43.752,122.2 L48.096,122.2 Q50.136,122.2 50.52,123.064 Q50.712,123.496 50.712,124.432 L50.712,127.744 Q50.712,128.656 50.52,129.112 Q50.232,129.736 49.224,129.928 Q48.744,130.024 47.568,130.024 L44.448,130.024 Q43.248,130.024 43.248,130.888 L43.248,133.336 Q43.248,134.2 44.448,134.2 L47.112,134.2 Q48.288,134.2 48.504,133.864 Q48.624,133.672 48.624,132.424 z" fill="#000000"/>
    <path d="M243.79,130.552 L243.79,133.768 Q243.79,134.704 243.598,135.136 Q243.214,136 241.102,136 L237.478,136 Q235.294,136 234.766,135.58 Q234.238,135.16 234.238,133.144 L234.238,132.424 L236.326,132.424 L236.326,133.096 Q236.326,133.864 236.686,134.08 Q236.926,134.2 237.838,134.2 L240.478,134.2 Q241.702,134.2 241.702,133.336 L241.702,130.888 Q241.702,130.288 241.198,130.096 Q240.934,130.024 240.19,130.024 L237.478,130.024 L237.478,128.176 L240.19,128.176 Q240.934,128.176 241.198,128.08 Q241.702,127.912 241.702,127.312 L241.702,124.84 Q241.702,124 240.478,124 L237.838,124 Q236.662,124 236.446,124.336 Q236.326,124.528 236.326,125.776 L234.238,125.776 L234.238,124.528 Q234.238,123.496 234.43,123.064 Q234.814,122.2 236.83,122.2 L241.174,122.2 Q243.214,122.2 243.598,123.064 Q243.79,123.496 243.79,124.432 L243.79,127.648 Q243.79,128.656 242.71,129.088 Q243.79,129.496 243.79,130.552 z" fill="#000000"/>
  </g>
</svg>
