<?xml version="1.0" encoding="UTF-8"?>
<!DOCTYPE svg PUBLIC "-//W3C//DTD SVG 1.1//EN" "http://www.w3.org/Graphics/SVG/1.1/DTD/svg11.dtd">
<svg version="1.1" xmlns="http://www.w3.org/2000/svg" xmlns:xlink="http://www.w3.org/1999/xlink" x="0" y="0" width="362.835" height="121.89" viewBox="0, 0, 362.835, 121.89">
  <g id="Layer_2">
    <g id="polarity">
      <path d="M46.339,114.574 C47.171,114.574 47.809,115.211 47.809,116.042 C47.809,116.874 47.171,117.513 46.339,117.513 C45.507,117.513 44.871,116.874 44.871,116.042 C44.871,115.211 45.507,114.574 46.339,114.574 z M44.871,114.574 L44.871,114.574 z M47.814,117.517 L47.814,117.517 z" fill="#000000" id="path68"/>
      <path d="M48.923,114.242 L48.83,114.116 L48.732,113.997 L48.627,113.881 L48.515,113.77 L48.4,113.665 L48.28,113.566 L48.154,113.474 L48.024,113.385 L47.889,113.306 L47.753,113.232 L47.61,113.167 L47.465,113.108 L47.318,113.054 L47.169,113.007 L47.018,112.972 L46.864,112.942 L46.709,112.919 L46.553,112.904 L46.398,112.898 L46.243,112.9 L46.085,112.909 L45.93,112.925 L45.776,112.951 L45.623,112.982 L45.472,113.022 L45.323,113.066 L45.176,113.121 L45.033,113.182 L44.892,113.251 L44.756,113.327 L44.623,113.409 L44.495,113.497 L44.369,113.591 L44.251,113.692 L44.136,113.799 L44.029,113.911 L43.926,114.028 L43.827,114.15 L43.737,114.278 L43.653,114.41 L43.573,114.545 L43.502,114.683 L43.439,114.826 L43.382,114.971 L43.331,115.118 L43.289,115.269 L43.256,115.421 L43.229,115.574 L43.208,115.729 L43.197,115.885 L43.193,116.042 L43.197,116.198 L43.208,116.353 L43.229,116.509 L43.254,116.662 L43.289,116.815 L43.331,116.964 L43.38,117.116 L43.436,117.261 L43.502,117.403 L43.573,117.542 L43.649,117.679 L43.733,117.809 L43.823,117.937 L43.92,118.059 L44.022,118.176 L44.132,118.29 L44.245,118.395 L44.365,118.498 L44.489,118.592 L44.617,118.68 L44.749,118.762 L44.888,118.838 L45.026,118.907 L45.171,118.968 L45.316,119.023 L45.465,119.071 L45.617,119.111 L45.77,119.143 L45.925,119.168 L46.079,119.185 L46.236,119.193 L46.392,119.195 L46.547,119.189 L46.703,119.174 L46.858,119.151 L47.011,119.122 L47.163,119.086 L47.314,119.042 L47.461,118.991 L47.606,118.933 L47.746,118.865 L47.885,118.792 L48.017,118.712 L48.148,118.626 L48.274,118.533 L48.395,118.433 L48.511,118.33 L48.62,118.218 L48.725,118.103 L48.824,117.981 L48.919,117.855 L48.362,117.466 L48.286,117.563 L48.209,117.66 L48.127,117.75 L48.041,117.836 L47.95,117.918 L47.856,117.996 L47.757,118.069 L47.656,118.136 L47.549,118.2 L47.442,118.258 L47.331,118.307 L47.217,118.355 L47.102,118.395 L46.984,118.431 L46.866,118.46 L46.747,118.483 L46.625,118.5 L46.503,118.51 L46.381,118.517 L46.257,118.515 L46.135,118.508 L46.014,118.496 L45.892,118.477 L45.772,118.452 L45.654,118.42 L45.537,118.384 L45.423,118.34 L45.31,118.29 L45.201,118.237 L45.094,118.178 L44.989,118.113 L44.888,118.044 L44.791,117.971 L44.697,117.891 L44.608,117.807 L44.522,117.719 L44.443,117.626 L44.367,117.532 L44.296,117.431 L44.23,117.328 L44.17,117.223 L44.113,117.114 L44.064,117.002 L44.018,116.887 L43.98,116.771 L43.947,116.654 L43.92,116.534 L43.899,116.414 L43.884,116.292 L43.873,116.171 L43.871,116.047 L43.873,115.925 L43.884,115.803 L43.899,115.681 L43.92,115.561 L43.947,115.442 L43.98,115.324 L44.018,115.206 L44.062,115.093 L44.113,114.982 L44.17,114.872 L44.23,114.765 L44.296,114.662 L44.367,114.564 L44.445,114.467 L44.527,114.375 L44.611,114.286 L44.701,114.202 L44.793,114.125 L44.89,114.049 L44.991,113.98 L45.096,113.917 L45.203,113.856 L45.314,113.803 L45.426,113.757 L45.541,113.715 L45.657,113.677 L45.776,113.646 L45.896,113.621 L46.016,113.602 L46.138,113.589 L46.261,113.583 L46.383,113.581 L46.505,113.587 L46.627,113.598 L46.749,113.614 L46.869,113.637 L46.988,113.667 L47.106,113.703 L47.221,113.742 L47.335,113.789 L47.444,113.843 L47.553,113.9 L47.658,113.963 L47.759,114.032 L47.858,114.104 L47.952,114.181 L48.045,114.263 L48.131,114.352 L48.213,114.442 L48.29,114.536 L48.36,114.635 L48.923,114.242 z M43.191,119.191 L43.191,119.191 z M49.492,112.902 L49.492,112.902 z" fill="#000000" id="path75"/>
      <path d="M55.842,112.589 C57.802,112.59 59.318,114.106 59.318,116.065 C59.318,118.024 57.802,119.54 55.842,119.54 C53.883,119.54 52.368,118.024 52.368,116.065 C52.368,114.106 53.883,112.59 55.842,112.59 z M55.842,113.29 C54.271,113.29 53.068,114.492 53.068,116.065 C53.068,117.637 54.271,118.84 55.842,118.84 C57.416,118.84 58.618,117.637 58.618,116.065 C58.618,114.492 57.416,113.29 55.842,113.29 z" fill="#000000" id="path82"/>
      <path d="M36.918,112.711 C38.798,112.711 40.251,114.166 40.251,116.045 C40.251,117.924 38.798,119.378 36.918,119.378 C35.04,119.378 33.584,117.924 33.584,116.045 C33.584,114.166 35.04,112.711 36.918,112.711 z M36.918,113.411 C35.425,113.411 34.285,114.552 34.285,116.045 C34.285,117.537 35.425,118.678 36.918,118.678 C38.41,118.678 39.551,117.537 39.551,116.045 C39.551,114.552 38.41,113.411 36.918,113.411 z" fill="#000000" id="path89"/>
      <path d="M41.615,116.36 L39.83,116.36 L39.83,115.729 L43.401,115.729 L43.401,116.36 L41.615,116.36 z" fill="#000000" id="path96"/>
      <path d="M50.017,116.36 L47.286,116.36 L47.286,115.729 L52.748,115.729 L52.748,116.36 L50.017,116.36 z" fill="#000000" id="path103"/>
      <path d="M36.89,116.36 L35.314,116.36 L35.314,115.729 L38.465,115.729 L38.465,116.36 L36.89,116.36 z" fill="#000000" id="path110"/>
      <path d="M55.793,116.36 L54.218,116.36 L54.218,115.729 L57.368,115.729 L57.368,116.36 L55.793,116.36 z" fill="#000000" id="path117"/>
      <path d="M55.793,117.62 L55.478,117.62 L55.478,114.469 L56.108,114.469 L56.108,117.62 L55.793,117.62 z" fill="#000000" id="path131"/>
    </g>
    <text transform="matrix(1, 0, 0, 1, 48.201, 57.553)">
      <tspan x="-16.011" y="4" font-family="ArialUnicodeMS" font-size="12" fill="#000000">6-12V</tspan>
    </text>
    <path d="M205.179,56.496 L205.179,50.683 L202.872,50.683 L202.872,49.993 L208.409,49.993 L208.409,50.683 L206.102,50.683 L206.102,56.496 z" fill="#000000"/>
    <path d="M209.323,56.496 L209.323,49.993 L210.246,49.993 L210.246,52.735 L213.339,52.735 L213.339,49.993 L214.262,49.993 L214.262,56.496 L213.339,56.496 L213.339,53.425 L210.246,53.425 L210.246,56.496 z" fill="#000000"/>
    <path d="M215.936,56.496 L215.936,49.993 L217.905,49.993 Q218.841,49.993 219.34,50.406 Q219.839,50.819 219.839,51.605 Q219.839,52.906 218.525,53.451 L220.696,56.496 L219.562,56.496 L217.712,53.745 L216.851,53.745 L216.851,56.496 z M216.851,53.056 L217.149,53.056 Q218.89,53.056 218.89,51.689 Q218.89,50.683 217.431,50.683 L216.851,50.683 z" fill="#000000"/>
    <path d="M221.575,49.993 L222.498,49.993 L222.498,54.097 Q222.498,55.077 222.86,55.523 Q223.223,55.969 224.014,55.969 Q224.787,55.969 225.11,55.549 Q225.433,55.13 225.433,54.128 L225.433,49.993 L226.242,49.993 L226.242,54.115 Q226.242,55.446 225.695,56.053 Q225.147,56.659 223.952,56.659 Q222.735,56.659 222.155,56.031 Q221.575,55.402 221.575,54.088 z" fill="#000000"/>
    <path d="M154.446,55.988 L154.446,49.484 L155.369,49.484 L155.369,55.988 z" fill="#000000"/>
    <path d="M157.043,55.988 L157.043,49.484 L157.948,49.484 L161.222,54.507 L161.222,49.484 L162.013,49.484 L162.013,55.988 L161.112,55.988 L157.834,50.965 L157.834,55.988 z" fill="#000000"/>
    <g>
      <path d="M144.304,44.979 L145.866,44.979 L145.866,54.417 L144.304,54.417 L144.304,44.979 z" fill="#000000"/>
      <path d="M144.304,44.979 L145.866,44.979 L145.866,54.417 L144.304,54.417 L144.304,44.979 z" fill-opacity="0" stroke="#000000" stroke-width="1"/>
    </g>
    <g>
      <path d="M145.866,44.979 L230.366,44.979 L230.366,46.229 L145.866,46.229 L145.866,44.979 z" fill="#000000"/>
      <path d="M145.866,44.979 L230.366,44.979 L230.366,46.229 L145.866,46.229 L145.866,44.979 z" fill-opacity="0" stroke="#000000" stroke-width="1"/>
    </g>
    <g>
      <path d="M230.179,44.979 L231.491,44.979 L231.491,54.979 L230.179,54.979 L230.179,44.979 z" fill="#000000"/>
      <path d="M230.179,44.979 L231.491,44.979 L231.491,54.979 L230.179,54.979 L230.179,44.979 z" fill-opacity="0" stroke="#000000" stroke-width="1"/>
    </g>
    <path d="M176.397,41.085 L176.397,30.967 L178.386,30.967 L181.189,38.795 L184.074,30.967 L185.851,30.967 L185.851,41.085 L184.511,41.085 L184.511,32.854 L181.722,40.408 L180.334,40.408 L177.627,32.834 L177.627,41.085 z" fill="#000000"/>
    <path d="M188.449,41.085 L188.449,30.967 L189.884,30.967 L189.884,41.085 z" fill="#000000"/>
    <path d="M192.489,41.085 L192.489,30.967 L195.852,30.967 Q197.356,30.967 198.282,31.302 Q199.208,31.637 199.885,32.437 Q200.958,33.709 200.958,35.787 Q200.958,38.309 199.625,39.697 Q198.292,41.085 195.872,41.085 z M193.924,40.011 L195.763,40.011 Q197.732,40.011 198.552,38.952 Q199.434,37.824 199.434,35.924 Q199.434,34.139 198.566,33.121 Q198.039,32.499 197.308,32.27 Q196.577,32.041 195.107,32.041 L193.924,32.041 z" fill="#000000"/>
    <path d="M202.968,41.085 L202.968,30.967 L204.404,30.967 L204.404,41.085 z" fill="#000000"/>
    <g id="warning-triangle">
      <path d="M150.151,116.761 L144.209,106.452 C144.101,106.262 143.911,106.153 143.694,106.153 C143.477,106.153 143.287,106.262 143.178,106.452 L137.182,116.815 C136.911,117.277 137.318,117.711 137.698,117.711 L149.689,117.711 C150.015,117.711 150.259,117.439 150.259,117.114 C150.259,116.978 150.232,116.87 150.151,116.761 z M138.729,116.517 L143.694,107.917 L148.658,116.517 L138.729,116.517 z" fill="#000000"/>
      <path d="M143.097,110.575 L143.097,113.207 C143.097,113.533 143.368,113.804 143.694,113.804 C144.019,113.804 144.29,113.533 144.29,113.207 L144.29,110.575 C144.29,110.25 144.019,109.979 143.694,109.979 C143.368,109.979 143.097,110.25 143.097,110.575 z" fill="#000000"/>
      <path d="M143.694,114.319 C143.287,114.319 142.961,114.645 142.961,115.052 C142.961,115.459 143.287,115.812 143.694,115.812 C144.101,115.812 144.426,115.459 144.426,115.052 C144.426,114.645 144.101,114.319 143.694,114.319 z" fill="#000000"/>
    </g>
    <path d="M153.976,111.09 Q152.797,111.09 152.154,110.398 Q151.512,109.706 151.512,108.438 Q151.512,107.173 152.166,106.476 Q152.821,105.779 154.01,105.779 Q154.69,105.779 155.603,106.001 L155.603,106.674 Q154.564,106.315 154,106.315 Q153.176,106.315 152.725,106.872 Q152.274,107.429 152.274,108.445 Q152.274,109.412 152.756,109.971 Q153.238,110.53 154.072,110.53 Q154.79,110.53 155.61,110.089 L155.61,110.704 Q154.861,111.09 153.976,111.09 z" fill="#000000"/>
    <path d="M158.775,105.905 L160.75,110.964 L159.975,110.964 L159.424,109.562 L159.402,109.562 L159.185,109.029 L159.216,109.029 L158.354,106.848 L157.49,109.029 L158.915,109.029 L159.132,109.562 L157.281,109.562 L156.724,110.964 L156.058,110.964 L158.064,105.905 L158.775,105.905 z" fill="#000000"/>
    <path d="M161.482,110.964 L161.482,105.905 L163.013,105.905 Q163.741,105.905 164.129,106.226 Q164.517,106.548 164.517,107.159 Q164.517,108.171 163.495,108.595 L165.184,110.964 L164.302,110.964 L162.863,108.824 L162.193,108.824 L162.193,110.964 z M162.193,108.287 L162.425,108.287 Q163.779,108.287 163.779,107.224 Q163.779,106.442 162.644,106.442 L162.193,106.442 z" fill="#000000"/>
    <path d="M165.908,110.964 L165.908,105.905 L167.439,105.905 Q168.168,105.905 168.555,106.226 Q168.943,106.548 168.943,107.159 Q168.943,108.171 167.921,108.595 L169.61,110.964 L168.728,110.964 L167.289,108.824 L166.619,108.824 L166.619,110.964 z M166.619,108.287 L166.852,108.287 Q168.205,108.287 168.205,107.224 Q168.205,106.442 167.07,106.442 L166.619,106.442 z" fill="#000000"/>
    <path d="M170.331,110.964 L170.331,105.905 L171.049,105.905 L171.049,110.964 z" fill="#000000"/>
    <path d="M172.351,110.964 L172.351,105.905 L175.178,105.905 L175.178,106.442 L173.069,106.442 L173.069,108.065 L174.836,108.065 L174.836,108.595 L173.069,108.595 L173.069,110.427 L175.325,110.427 L175.325,110.964 z" fill="#000000"/>
    <path d="M177.136,111.09 Q176.627,111.09 175.834,110.868 L175.834,110.157 Q176.689,110.553 177.239,110.553 Q177.663,110.553 177.921,110.331 Q178.179,110.109 178.179,109.747 Q178.179,109.449 178.01,109.241 Q177.84,109.032 177.386,108.776 L177.037,108.574 Q176.391,108.205 176.126,107.879 Q175.861,107.553 175.861,107.118 Q175.861,106.534 176.285,106.156 Q176.709,105.779 177.365,105.779 Q177.95,105.779 178.599,105.973 L178.599,106.63 Q177.799,106.315 177.406,106.315 Q177.034,106.315 176.791,106.513 Q176.548,106.712 176.548,107.012 Q176.548,107.265 176.726,107.46 Q176.904,107.655 177.376,107.925 L177.738,108.13 Q178.394,108.503 178.654,108.834 Q178.914,109.166 178.914,109.631 Q178.914,110.29 178.427,110.69 Q177.939,111.09 177.136,111.09 z" fill="#000000"/>
    <path d="M154.104,117.764 L154.104,112.705 L155.482,112.705 Q156.398,112.705 156.798,113.014 Q157.198,113.324 157.198,114.031 Q157.198,114.838 156.651,115.296 Q156.104,115.754 155.133,115.754 L154.815,115.754 L154.815,117.764 z M154.815,115.21 L155.106,115.21 Q155.745,115.21 156.094,114.916 Q156.442,114.623 156.442,114.086 Q156.442,113.631 156.169,113.436 Q155.895,113.242 155.256,113.242 L154.815,113.242 z" fill="#000000"/>
    <path d="M160.011,117.89 Q158.958,117.89 158.317,117.16 Q157.676,116.431 157.676,115.231 Q157.676,114.024 158.32,113.301 Q158.965,112.579 160.041,112.579 Q161.115,112.579 161.761,113.3 Q162.407,114.021 162.407,115.224 Q162.407,116.451 161.761,117.171 Q161.115,117.89 160.011,117.89 z M160.021,117.353 Q160.797,117.353 161.22,116.795 Q161.644,116.236 161.644,115.217 Q161.644,114.229 161.219,113.672 Q160.793,113.115 160.041,113.115 Q159.286,113.115 158.862,113.674 Q158.438,114.233 158.438,115.228 Q158.438,116.219 158.859,116.786 Q159.279,117.353 160.021,117.353 z" fill="#000000"/>
    <path d="M164.068,117.764 L162.765,112.705 L163.456,112.705 L164.491,116.701 L165.445,112.705 L166.136,112.705 L167.038,116.646 L168.152,112.705 L168.737,112.705 L167.318,117.764 L166.604,117.764 L165.712,113.864 L164.779,117.764 z" fill="#000000"/>
    <path d="M169.4,117.764 L169.4,112.705 L172.226,112.705 L172.226,113.242 L170.117,113.242 L170.117,114.865 L171.885,114.865 L171.885,115.395 L170.117,115.395 L170.117,117.227 L172.373,117.227 L172.373,117.764 z" fill="#000000"/>
    <path d="M173.194,117.764 L173.194,112.705 L174.725,112.705 Q175.453,112.705 175.841,113.026 Q176.229,113.348 176.229,113.959 Q176.229,114.971 175.207,115.395 L176.895,117.764 L176.013,117.764 L174.574,115.624 L173.905,115.624 L173.905,117.764 z M173.905,115.087 L174.137,115.087 Q175.491,115.087 175.491,114.024 Q175.491,113.242 174.356,113.242 L173.905,113.242 z" fill="#000000"/>
    <path d="M322.803,1.808 C330.991,1.808 337.629,8.209 337.629,16.105 L337.629,105.824 C337.629,113.72 330.991,120.121 322.803,120.121 L303.761,120.12 C295.573,120.121 288.935,113.72 288.935,105.824 L288.935,16.105 C288.935,8.209 295.573,1.808 303.761,1.808 L322.803,1.808 z M311.429,4.181 L310.075,4.181 L313.017,8.294 L309.689,12.77 L311.06,12.77 Q313.614,9.237 313.614,9.132 L313.638,9.132 Q313.802,9.436 314.435,10.333 L316.157,12.77 L317.564,12.77 L314.312,8.224 L317.323,4.181 L316.087,4.181 Q313.902,7.052 313.673,7.444 Q313.532,7.163 313.239,6.747 L311.429,4.181 z M308.792,4.181 L302.575,4.181 L302.575,12.77 L308.991,12.77 L308.991,11.751 L303.712,11.751 L303.712,8.845 L308.464,8.845 L308.464,7.825 L303.712,7.825 L303.712,5.2 L308.792,5.2 L308.792,4.181 z M321.8,4.181 L318.56,4.181 L318.56,12.77 L319.696,12.77 L319.696,9.29 L321.894,9.29 Q323.581,9.29 324.346,8.572 Q325.111,7.854 325.111,6.665 Q325.111,6.067 324.867,5.519 Q324.624,4.972 324.15,4.652 Q323.675,4.333 323.121,4.257 Q322.568,4.181 321.8,4.181 z M321.882,5.2 Q322.638,5.2 323.022,5.297 Q323.405,5.393 323.669,5.789 Q323.933,6.184 323.933,6.7 Q323.933,8.27 321.905,8.27 L319.696,8.27 L319.696,5.2 L321.882,5.2 z" fill="#000000"/>
    <path d="M258.965,5.071 L256.123,5.071 L256.123,12.641 L254.981,12.641 L254.981,5.071 L252.163,5.071 L252.163,4.051 L258.965,4.051 z" fill="#000000"/>
    <path d="M267.76,12.641 L266.331,12.641 Q265.047,10.614 264.737,10.151 Q264.426,9.688 264.083,9.357 Q263.741,9.026 263.439,8.938 Q263.137,8.85 262.639,8.85 L261.327,8.85 L261.327,12.641 L260.19,12.641 L260.19,4.051 L263.993,4.051 Q264.772,4.051 265.299,4.151 Q265.827,4.251 266.225,4.57 Q266.624,4.889 266.837,5.376 Q267.051,5.862 267.051,6.401 Q267.051,7.374 266.436,7.965 Q265.821,8.557 264.643,8.715 L264.643,8.739 Q265.504,9.12 266.26,10.303 z M261.327,7.831 L263.764,7.831 Q264.502,7.831 264.933,7.705 Q265.364,7.579 265.622,7.215 Q265.879,6.852 265.879,6.401 Q265.879,5.815 265.452,5.405 Q265.024,4.995 264.04,4.995 L261.327,4.995 z" fill="#000000"/>
    <path d="M270.139,12.641 L268.997,12.641 L268.997,4.051 L270.139,4.051 z" fill="#000000"/>
    <path d="M279.795,11.44 Q278.172,12.788 276.245,12.788 Q274.27,12.788 273.06,11.584 Q271.85,10.379 271.85,8.381 Q271.85,7.163 272.345,6.111 Q272.84,5.059 273.804,4.482 Q274.768,3.905 276.163,3.905 Q277.61,3.905 278.486,4.541 Q279.362,5.176 279.666,6.448 L278.647,6.735 Q278.407,5.809 277.786,5.343 Q277.165,4.878 276.163,4.878 Q274.61,4.878 273.819,5.827 Q273.028,6.776 273.028,8.311 Q273.028,9.46 273.412,10.221 Q273.795,10.983 274.548,11.373 Q275.301,11.762 276.186,11.762 Q277.534,11.762 278.694,10.878 L278.694,9.284 L276.163,9.284 L276.163,8.258 L279.795,8.258 z" fill="#000000"/>
    <path d="M350.199,86.005 L348.915,86.005 L347.908,83.392 L344.322,83.392 L343.372,86.005 L342.171,86.005 L345.47,77.415 L346.695,77.415 z M347.562,82.49 Q346.507,79.7 346.372,79.323 Q346.238,78.945 346.074,78.312 L346.044,78.312 Q345.88,79.179 345.605,79.917 L344.644,82.49 z" fill="#000000"/>
    <path d="M347.438,44.624 Q348.246,44.87 348.648,45.424 Q349.049,45.977 349.049,46.698 Q349.049,47.419 348.686,48.022 Q348.323,48.626 347.655,48.91 Q346.987,49.194 345.844,49.194 L342.557,49.194 L342.557,40.604 L345.78,40.604 Q347.344,40.604 347.986,41.284 Q348.627,41.964 348.627,42.796 Q348.627,43.358 348.331,43.836 Q348.036,44.313 347.438,44.624 z M343.694,44.202 L345.557,44.202 Q346.131,44.202 346.521,44.137 Q346.911,44.073 347.209,43.798 Q347.508,43.522 347.508,42.942 Q347.508,42.333 347.206,42.043 Q346.905,41.753 346.486,41.688 Q346.067,41.624 345.411,41.624 L343.694,41.624 z M343.694,48.174 L345.832,48.174 Q346.981,48.174 347.426,47.782 Q347.871,47.389 347.871,46.698 Q347.871,46.001 347.397,45.611 Q346.922,45.221 345.686,45.221 L343.694,45.221 z" fill="#000000"/>
    <path d="M117.513,64.34 C117.513,64.445 117.456,64.547 117.36,64.595 L114.33,66.414 C114.283,66.441 114.235,66.462 114.177,66.462 C114.13,66.462 114.072,66.451 114.024,66.424 C113.929,66.366 113.871,66.271 113.871,66.159 L113.871,64.948 L105.754,64.948 C106.615,66.295 107.132,68.583 108.121,68.583 L109.029,68.583 L109.029,67.672 C109.029,67.502 109.162,67.369 109.332,67.369 L112.362,67.369 C112.532,67.369 112.664,67.502 112.664,67.672 L112.664,70.702 C112.664,70.872 112.532,71.005 112.362,71.005 L109.332,71.005 C109.162,71.005 109.029,70.872 109.029,70.702 L109.029,69.794 L108.121,69.794 C105.557,69.794 105.363,64.948 103.881,64.948 L100.47,64.948 C100.194,65.989 99.249,66.768 98.124,66.768 C96.787,66.764 95.699,65.676 95.699,64.34 C95.699,63.003 96.787,61.915 98.124,61.915 C99.249,61.915 100.198,62.69 100.47,63.734 C101.8,63.734 101.963,64.057 103.007,61.68 C104.37,58.651 104.982,58.889 106.71,58.889 C106.965,58.178 107.628,57.678 108.424,57.678 C109.427,57.678 110.243,58.491 110.243,59.497 C110.243,60.504 109.43,61.317 108.424,61.317 C107.628,61.317 106.965,60.813 106.71,60.106 L105.697,60.106 C104.707,60.106 104.19,62.398 103.33,63.741 L113.875,63.741 L113.875,62.531 C113.875,62.418 113.933,62.323 114.028,62.265 C114.123,62.208 114.245,62.218 114.33,62.276 L117.36,64.095 C117.456,64.132 117.513,64.234 117.513,64.34 z" fill="#000000" id="usb"/>
    <g id="logo">
      <path d="M48.437,10.957 L51.857,12.932 L55.278,14.906 L58.698,16.881 L62.118,18.856 L62.118,19.711 L61.624,19.711 L61.618,19.722 L61.6,19.711 L61.118,19.711 L61.118,19.433 L58.198,17.747 L54.778,15.772 L51.357,13.798 L48.437,12.112 L45.517,13.798 L42.097,15.772 L38.677,17.747 L35.757,19.433 L35.757,22.339 L34.757,22.438 L34.757,18.856 L38.177,16.881 L41.597,14.906 L45.017,12.932 L48.437,10.957 z" fill="#000000" id="TOP"/>
      <g id="TEXT">
        <g>
          <path d="M36.519,32.093 Q36.457,32.374 36.457,32.593 Q36.457,33.64 37.629,33.64 Q37.785,33.64 37.957,33.624 L43.833,33.624 L43.833,32.312 L37.957,32.312 L43.833,22.435 Q43.911,22.169 43.911,21.966 Q43.911,21.122 42.395,21.122 L36.394,21.122 L36.394,22.435 L42.395,22.435 z" fill="#000000"/>
          <path d="M42.395,21.122 Q43.911,21.122 43.911,21.966 Q43.911,22.169 43.833,22.435 L37.957,32.312 L43.833,32.312 L43.833,33.624 L37.957,33.624 Q37.785,33.64 37.629,33.64 Q36.457,33.64 36.457,32.593 Q36.457,32.374 36.519,32.093 L42.395,22.435 L36.394,22.435 L36.394,21.122 L42.395,21.122 z" fill="#000000"/>
        </g>
        <g>
          <path d="M44.677,33.586 L48.396,33.586 Q52.116,33.586 52.116,30.273 L52.116,24.209 Q52.116,21.084 48.396,21.084 L44.677,21.084 L44.677,22.271 L48.365,22.271 Q50.865,22.271 50.865,24.397 L50.865,30.085 Q50.865,32.336 48.365,32.336 L45.865,32.336 L45.865,23.24 L44.677,23.24 z" fill="#000000"/>
          <path d="M48.396,21.084 Q52.116,21.084 52.116,24.209 L52.116,30.273 Q52.116,33.586 48.396,33.586 L44.677,33.586 L44.677,23.24 L45.864,23.24 L45.864,32.335 L48.365,32.335 Q50.865,32.336 50.865,30.085 L50.865,24.397 Q50.865,22.271 48.365,22.271 L44.677,22.271 L44.677,21.084 L48.396,21.084 z" fill="#000000"/>
        </g>
        <g>
          <path d="M57.007,32.374 L53.319,32.374 L53.319,33.624 L57.038,33.624 Q60.758,33.624 60.758,30.311 Q60.758,28.342 59.039,27.53 L56.132,26.154 Q54.507,25.389 54.507,24.435 Q54.507,22.31 57.007,22.31 L60.758,22.31 L60.758,21.122 L57.038,21.122 Q53.319,21.122 53.319,24.373 Q53.319,25.92 54.928,26.983 Q55.647,27.327 57.898,28.436 Q59.507,29.217 59.507,30.124 Q59.507,32.374 57.007,32.374 z" fill="#000000"/>
          <path d="M60.757,21.122 L60.757,22.31 L57.007,22.31 Q54.507,22.31 54.507,24.435 Q54.507,25.389 56.132,26.154 L59.039,27.53 Q60.758,28.342 60.757,30.311 Q60.758,33.624 57.038,33.624 L53.319,33.624 L53.319,32.374 L57.007,32.374 Q59.507,32.374 59.507,30.124 Q59.507,29.217 57.898,28.436 Q55.647,27.327 54.928,26.983 Q53.319,25.92 53.319,24.373 Q53.319,21.122 57.038,21.122 L60.757,21.122 z" fill="#000000"/>
        </g>
        <g id="S-ENTENSION">
          <path d="M60.592,21.618 L62.055,21.622" fill="#000000"/>
          <path d="M60.592,21.618 L62.055,21.622" fill-opacity="0" stroke="#000000" stroke-width="1"/>
        </g>
        <g id="S-ENTENSION">
          <path d="M34.775,21.925 L36.427,21.942" fill="#000000"/>
          <path d="M34.775,21.925 L36.427,21.942" fill-opacity="0" stroke="#000000" stroke-width="1"/>
        </g>
        <g id="S-ENTENSION">
          <path d="M60.484,21.807 L61.415,21.807" fill="#000000"/>
          <path d="M60.484,21.807 L61.415,21.807" fill-opacity="0" stroke="#000000" stroke-width="1"/>
        </g>
        <g id="Z-ENTENSION">
          <path d="M35.284,21.62 L36.442,21.62" fill="#000000"/>
          <path d="M35.284,21.62 L36.442,21.62" fill-opacity="0" stroke="#000000" stroke-width="1"/>
        </g>
      </g>
      <path d="M62.118,21.119 L62.118,34.653 L58.698,36.627 L51.857,40.576 L48.437,42.551 L45.017,40.576 L41.597,38.602 L38.177,36.627 L34.757,34.653 L34.757,30.703 L34.757,23.778 L35.757,23.778 L35.757,30.703 L35.757,34.075 L38.677,35.761 L42.097,37.736 L45.517,39.71 L48.437,41.396 L51.357,39.71 L54.778,37.736 L58.198,35.761 L61.118,34.075 L61.118,21.217 L62.118,21.119 z" fill="#000000" id="BOTTOM"/>
      <path d="M48.437,9.694 L63.249,18.246 L63.249,35.349 L48.437,43.901 L33.625,35.349 L33.625,18.246 L48.437,9.694 z M48.437,10.849 L34.625,18.823 L34.625,34.772 L48.437,42.746 L62.249,34.772 L62.249,18.823 L48.437,10.849 z" fill="#000000" id="OUTER"/>
    </g>
  </g>
  <g id="guide" display="none">
    <path d="M362.835,0 L362.835,121.89" fill-opacity="0" stroke="#000000" stroke-width="2.835"/>
    <path d="M362.835,121.89 L0,121.89" fill-opacity="0" stroke="#000000" stroke-width="2.835"/>
    <path d="M0,121.89 L0,0" fill-opacity="0" stroke="#000000" stroke-width="2.835"/>
    <path d="M0,0 L362.835,0" fill-opacity="0" stroke="#000000" stroke-width="2.835"/>
    <path d="M124.554,110.636 L89.688,110.636" fill-opacity="0" stroke="#000000" stroke-width="2.835"/>
    <path d="M88.271,109.219 C88.271,110.002 88.905,110.636 89.688,110.636" fill-opacity="0" stroke="#000000" stroke-width="2.835"/>
    <path d="M88.271,109.219 L88.271,77.187" fill-opacity="0" stroke="#000000" stroke-width="2.835"/>
    <path d="M89.688,75.77 C88.905,75.77 88.271,76.405 88.271,77.187" fill-opacity="0" stroke="#000000" stroke-width="2.835"/>
    <path d="M89.688,75.77 L124.554,75.77" fill-opacity="0" stroke="#000000" stroke-width="2.835"/>
    <path d="M125.972,77.187 C125.972,76.405 125.337,75.77 124.554,75.77" fill-opacity="0" stroke="#000000" stroke-width="2.835"/>
    <path d="M125.972,77.187 L125.972,109.219" fill-opacity="0" stroke="#000000" stroke-width="2.835"/>
    <path d="M124.554,110.636 C125.337,110.636 125.972,110.002 125.972,109.219" fill-opacity="0" stroke="#000000" stroke-width="2.835"/>
    <path d="M59.244,90.368 C59.244,97.038 53.838,102.444 47.169,102.444 C40.499,102.444 35.093,97.038 35.093,90.368 C35.093,83.699 40.499,78.293 47.169,78.293 C53.838,78.293 59.244,83.699 59.244,90.368 z" fill-opacity="0" stroke="#000000" stroke-width="2.835"/>
    <path d="M82.602,92.268 C82.602,94.773 80.571,96.803 78.066,96.803 C75.561,96.803 73.531,94.773 73.531,92.268 C73.531,89.763 75.561,87.732 78.066,87.732 C80.571,87.732 82.602,89.763 82.602,92.268 z" fill-opacity="0" stroke="#000000" stroke-width="2.835"/>
    <path d="M179.632,80.589 C179.632,92.33 170.113,101.849 158.372,101.849 C146.63,101.849 137.112,92.33 137.112,80.589 C137.112,68.847 146.63,59.329 158.372,59.329 C170.113,59.329 179.632,68.847 179.632,80.589 z" fill-opacity="0" stroke="#000000" stroke-width="2.835"/>
    <path d="M237.175,80.589 C237.175,92.33 227.656,101.849 215.915,101.849 C204.173,101.849 194.655,92.33 194.655,80.589 C194.655,68.847 204.173,59.329 215.915,59.329 C227.656,59.329 237.175,68.847 237.175,80.589 z" fill-opacity="0" stroke="#000000" stroke-width="2.835"/>
    <path d="M281.395,90.51 C281.395,98.338 275.05,104.683 267.222,104.683 C259.394,104.683 253.049,98.338 253.049,90.51 C253.049,82.683 259.394,76.337 267.222,76.337 C275.05,76.337 281.395,82.683 281.395,90.51 z" fill-opacity="0" stroke="#000000" stroke-width="2.835"/>
    <path d="M327.203,90.51 C327.203,98.338 320.858,104.683 313.03,104.683 C305.202,104.683 298.857,98.338 298.857,90.51 C298.857,82.683 305.202,76.337 313.03,76.337 C320.858,76.337 327.203,82.683 327.203,90.51 z" fill-opacity="0" stroke="#FFFFFF" stroke-width="2.835"/>
    <path d="M281.395,36.51 C281.395,44.338 275.05,50.683 267.222,50.683 C259.394,50.683 253.049,44.338 253.049,36.51 C253.049,28.683 259.394,22.337 267.222,22.337 C275.05,22.337 281.395,28.683 281.395,36.51 z" fill-opacity="0" stroke="#000000" stroke-width="2.835"/>
    <path d="M19.843,14.173 C19.843,17.304 17.304,19.843 14.173,19.843 C11.042,19.843 8.504,17.304 8.504,14.173 C8.504,11.042 11.042,8.504 14.173,8.504 C17.304,8.504 19.843,11.042 19.843,14.173 z" fill-opacity="0" stroke="#000000" stroke-width="2.835"/>
    <path d="M354.331,14.173 C354.331,17.304 351.792,19.843 348.661,19.843 C345.53,19.843 342.992,17.304 342.992,14.173 C342.992,11.042 345.53,8.504 348.661,8.504 C351.792,8.504 354.331,11.042 354.331,14.173 z" fill-opacity="0" stroke="#000000" stroke-width="2.835"/>
    <path d="M354.331,107.717 C354.331,110.848 351.792,113.386 348.661,113.386 C345.53,113.386 342.992,110.848 342.992,107.717 C342.992,104.585 345.53,102.047 348.661,102.047 C351.792,102.047 354.331,104.585 354.331,107.717 z" fill-opacity="0" stroke="#000000" stroke-width="2.835"/>
    <path d="M19.843,107.717 C19.843,110.848 17.304,113.386 14.173,113.386 C11.042,113.386 8.504,110.848 8.504,107.717 C8.504,104.585 11.042,102.047 14.173,102.047 C17.304,102.047 19.843,104.585 19.843,107.717 z" fill-opacity="0" stroke="#000000" stroke-width="2.835"/>
    <path d="M187.795,14.173 C187.795,17.304 185.257,19.843 182.126,19.843 C178.995,19.843 176.457,17.304 176.457,14.173 C176.457,11.042 178.995,8.504 182.126,8.504 C185.257,8.504 187.795,11.042 187.795,14.173 z" fill-opacity="0" stroke="#000000" stroke-width="2.835"/>
    <path d="M327.203,36.51 C327.203,44.338 320.858,50.683 313.03,50.683 C305.202,50.683 298.857,44.338 298.857,36.51 C298.857,28.683 305.202,22.337 313.03,22.337 C320.858,22.337 327.203,28.683 327.203,36.51 z" fill-opacity="0" stroke="#FFFFFF" stroke-width="2.835"/>
  </g>
</svg>
