<?xml version="1.0" encoding="UTF-8" standalone="no"?>
<svg width="95.25mm" height="27.1639mm"
 viewBox="0 0 270 77"
 xmlns="http://www.w3.org/2000/svg" xmlns:xlink="http://www.w3.org/1999/xlink"  version="1.2" baseProfile="tiny">
<title>Qt SVG Document</title>
<desc>Generated with Qt</desc>
<defs>
</defs>
<g fill="none" stroke="black" stroke-width="1" fill-rule="evenodd" stroke-linecap="square" stroke-linejoin="bevel" >

<g fill="#ffffff" fill-opacity="1" stroke="none" transform="matrix(1,0,0,1,0,0)"
font-family=".AppleSystemUIFont" font-size="13" font-weight="400" font-style="normal" 
>
<rect x="0" y="0" width="270" height="77"/>
</g>

<g fill="none" stroke="#000000" stroke-opacity="1" stroke-width="1" stroke-linecap="round" stroke-linejoin="round" transform="matrix(1,0,0,1,0,0)"
font-family=".AppleSystemUIFont" font-size="13" font-weight="400" font-style="normal" 
>
<polyline fill="none" vector-effect="non-scaling-stroke" points="4,0 266,0 " />
<polyline fill="none" vector-effect="non-scaling-stroke" points="270,4 270,2 268,1 266,0 " />
<polyline fill="none" vector-effect="non-scaling-stroke" points="270,4 270,73 " />
<polyline fill="none" vector-effect="non-scaling-stroke" points="266,77 268,77 269,75 270,73 " />
<polyline fill="none" vector-effect="non-scaling-stroke" points="266,77 4,77 " />
<polyline fill="none" vector-effect="non-scaling-stroke" points="4,77 6,77 7,75 8,73 8,71 6,70 5,69 3,69 1,70 0,72 0,73 " />
<polyline fill="none" vector-effect="non-scaling-stroke" points="0,73 0,4 " />
<polyline fill="none" vector-effect="non-scaling-stroke" points="0,4 0,6 2,7 4,8 6,8 7,6 8,5 8,3 7,1 5,0 4,0 " />
<polyline fill="none" vector-effect="non-scaling-stroke" points="78,75 53,75 " />
<polyline fill="none" vector-effect="non-scaling-stroke" points="52,74 52,75 53,75 53,75 " />
<polyline fill="none" vector-effect="non-scaling-stroke" points="52,74 52,51 " />
<polyline fill="none" vector-effect="non-scaling-stroke" points="53,50 53,51 52,51 52,51 " />
<polyline fill="none" vector-effect="non-scaling-stroke" points="53,50 78,50 " />
<polyline fill="none" vector-effect="non-scaling-stroke" points="79,51 79,51 78,51 78,50 " />
<polyline fill="none" vector-effect="non-scaling-stroke" points="79,51 79,74 " />
<polyline fill="none" vector-effect="non-scaling-stroke" points="78,75 78,75 79,75 79,74 " />
<polyline fill="none" vector-effect="non-scaling-stroke" points="32,61 32,59 31,57 30,55 28,54 27,53 25,52 23,52 21,53 19,53 17,55 16,56 15,58 15,60 15,62 15,64 16,66 18,67 19,68 21,69 23,69 25,69 27,68 29,67 30,66 31,64 32,62 32,61 " />
<polyline fill="none" vector-effect="non-scaling-stroke" points="48,62 48,61 47,59 45,59 44,59 43,60 42,62 42,63 43,65 44,65 46,65 47,64 48,63 48,62 " />
<polyline fill="none" vector-effect="non-scaling-stroke" points="118,54 118,52 118,50 117,48 116,46 115,45 114,43 112,42 111,41 109,40 107,39 105,39 103,39 101,39 99,40 97,40 95,41 94,42 92,44 91,45 90,47 89,49 89,51 88,53 88,55 89,57 89,59 90,60 91,62 92,64 94,65 95,66 97,67 99,68 101,69 103,69 105,69 107,68 109,68 110,67 112,66 114,65 115,63 116,62 117,60 118,58 118,56 118,54 " />
<polyline fill="none" vector-effect="non-scaling-stroke" points="160,54 160,52 159,50 159,48 158,46 157,45 155,43 154,42 152,41 150,40 148,39 146,39 144,39 142,39 140,40 139,40 137,41 135,42 134,44 133,45 131,47 131,49 130,51 130,53 130,55 130,57 131,59 131,60 132,62 134,64 135,65 137,66 138,67 140,68 142,69 144,69 146,69 148,68 150,68 152,67 154,66 155,65 156,63 158,62 159,60 159,58 160,56 160,54 " />
<polyline fill="none" vector-effect="non-scaling-stroke" points="188,61 188,59 187,57 186,55 185,54 184,53 182,52 180,51 178,51 176,51 174,52 172,53 171,54 170,56 169,58 168,60 168,62 169,64 169,66 170,67 172,69 173,70 175,71 177,71 179,71 181,71 183,70 185,69 186,67 187,66 188,64 188,62 188,61 " />
<polyline fill="none" vector-effect="non-scaling-stroke" points="220,61 220,59 219,57 218,55 217,54 215,53 214,52 212,51 210,51 208,51 206,52 204,53 203,54 201,56 201,58 200,60 200,62 200,64 201,66 202,67 203,69 205,70 207,71 209,71 211,71 213,71 215,70 216,69 218,67 219,66 220,64 220,62 220,61 " />
<polyline fill="none" vector-effect="non-scaling-stroke" points="252,61 251,59 251,57 250,55 249,54 247,53 245,52 243,51 241,51 239,51 237,52 236,53 234,54 233,56 232,58 232,60 232,62 232,64 233,66 234,67 235,69 237,70 239,71 240,71 242,71 244,71 246,70 248,69 249,67 250,66 251,64 252,62 252,61 " />
<polyline fill="none" vector-effect="non-scaling-stroke" points="12,8 12,6 10,5 8,4 6,4 5,6 4,7 4,9 5,11 7,12 9,12 11,11 12,9 12,8 " />
<polyline fill="none" vector-effect="non-scaling-stroke" points="266,8 266,6 264,5 262,4 260,4 259,6 258,7 258,9 259,11 261,12 263,12 265,11 266,9 266,8 " />
<polyline fill="none" vector-effect="non-scaling-stroke" points="266,69 266,67 264,66 262,65 260,65 259,67 258,68 258,70 259,72 261,73 263,73 265,72 266,70 266,69 " />
<polyline fill="none" vector-effect="non-scaling-stroke" points="12,69 12,67 10,66 8,65 6,65 5,67 4,68 4,70 5,72 7,73 9,73 11,72 12,70 12,69 " />
<polyline fill="none" vector-effect="non-scaling-stroke" points="139,8 139,6 137,5 135,4 133,4 132,6 131,7 131,9 132,11 134,12 136,12 138,11 139,9 139,8 " />
</g>
</g>
</svg>
